<svg xmlns="http://www.w3.org/2000/svg" width="106" height="106" viewBox="0 0 106 106">
  <defs>
    <style>
      .cls-1 {
        fill: rgba(255,255,255,0);
      }

      .cls-2 {
        fill: #ff0303;
      }
    </style>
  </defs>
  <g transform="translate(-89.5 -268.5)">
    <path id="Union" class="cls-1" d="M46,46,0,92,46,46,0,0,46,46,92,0,46,46,92,92Z" transform="translate(96.5 275.5)"/>
    <path id="Union_-_Outline" data-name="Union - Outline" class="cls-2" d="M0-7A6.978,6.978,0,0,1,4.95-4.95L46,36.1,87.05-4.95a7,7,0,0,1,9.9,0A6.978,6.978,0,0,1,99,0a6.978,6.978,0,0,1-2.05,4.95L55.9,46,96.95,87.05a7,7,0,0,1-9.9,9.9L46,55.9,4.95,96.95a7,7,0,0,1-9.9,0A6.978,6.978,0,0,1-7,92a6.978,6.978,0,0,1,2.05-4.95L36.1,46-4.95,4.95A6.978,6.978,0,0,1-7,0,6.978,6.978,0,0,1-4.95-4.95,6.978,6.978,0,0,1,0-7Z" transform="translate(96.5 275.5)"/>
  </g>
</svg>
